<svg width="101" height="94" viewBox="0 0 101 94" fill="none" xmlns="http://www.w3.org/2000/svg">
<path d="M76.4573 33.1791C76.423 33.1504 76.3858 33.1353 76.3559 33.1298C76.3318 33.1255 76.2979 33.124 76.2456 33.1444L35.3968 49.0638C35.2482 49.1217 35.2154 49.3179 35.3373 49.4205L67.6341 76.5005C67.7564 76.603 67.9446 76.5369 67.9757 76.3804L76.5277 33.3809C76.5386 33.3256 76.5313 33.2927 76.5228 33.2697C76.5121 33.2412 76.4915 33.2078 76.4573 33.1791Z" stroke="#B50000" stroke-width="3.5"/>
<path d="M24.5037 29.6511C24.538 29.6224 24.5751 29.6073 24.605 29.6018C24.6291 29.5975 24.6631 29.596 24.7154 29.6163L65.5641 45.5358C65.7127 45.5937 65.7456 45.7899 65.6236 45.8925L33.3268 72.9725C33.2045 73.075 33.0164 73.0089 32.9852 72.8524L24.4333 29.8529C24.4223 29.7976 24.4296 29.7647 24.4382 29.7417C24.4488 29.7132 24.4695 29.6798 24.5037 29.6511Z" stroke="#B50000" stroke-width="3.5"/>
<circle cx="52.2476" cy="16.2102" r="13.5625" stroke="#B50000" stroke-width="3.5"/>
</svg>
