<svg width="212" height="70" viewBox="0 0 212 70" fill="none" xmlns="http://www.w3.org/2000/svg">
<path d="M78.3296 47.25V22.7045H81.3019V34.8814H81.5895L92.6158 22.7045H96.499L86.1918 33.7788L96.499 47.25H92.9035L84.3701 35.8402L81.3019 39.2919V47.25H78.3296ZM105.38 47.6815C104.213 47.6815 103.155 47.4617 102.204 47.0223C101.253 46.5748 100.498 45.9316 99.9387 45.0927C99.3794 44.2457 99.0998 43.223 99.0998 42.0245C99.0998 40.9698 99.3075 40.1149 99.723 39.4597C100.138 38.7965 100.694 38.2772 101.389 37.9016C102.084 37.5261 102.851 37.2464 103.69 37.0627C104.537 36.8709 105.388 36.7191 106.243 36.6072C107.361 36.4634 108.268 36.3556 108.963 36.2836C109.667 36.2037 110.178 36.0719 110.498 35.8881C110.825 35.7044 110.989 35.3848 110.989 34.9293V34.8335C110.989 33.6509 110.665 32.7321 110.018 32.0769C109.379 31.4217 108.408 31.0941 107.106 31.0941C105.755 31.0941 104.697 31.3897 103.93 31.981C103.163 32.5723 102.623 33.2035 102.312 33.8746L99.6271 32.9158C100.107 31.7972 100.746 30.9263 101.545 30.3031C102.352 29.6719 103.231 29.2324 104.181 28.9847C105.14 28.729 106.083 28.6012 107.01 28.6012C107.601 28.6012 108.28 28.6731 109.047 28.8169C109.822 28.9528 110.569 29.2364 111.289 29.6679C112.016 30.0993 112.619 30.7505 113.098 31.6214C113.578 32.4924 113.817 33.6589 113.817 35.1211V47.25H110.989V44.7571H110.845C110.653 45.1566 110.334 45.5841 109.886 46.0395C109.439 46.4949 108.844 46.8825 108.101 47.2021C107.357 47.5217 106.451 47.6815 105.38 47.6815ZM105.811 45.1406C106.93 45.1406 107.873 44.9209 108.64 44.4814C109.415 44.042 109.998 43.4747 110.39 42.7796C110.789 42.0844 110.989 41.3533 110.989 40.5863V37.9975C110.869 38.1413 110.605 38.2732 110.198 38.393C109.798 38.5049 109.335 38.6048 108.808 38.6926C108.288 38.7725 107.781 38.8445 107.286 38.9084C106.798 38.9643 106.403 39.0123 106.099 39.0522C105.364 39.1481 104.677 39.3039 104.038 39.5196C103.406 39.7274 102.895 40.043 102.504 40.4664C102.12 40.8819 101.928 41.4492 101.928 42.1683C101.928 43.1511 102.292 43.8942 103.019 44.3975C103.754 44.8929 104.685 45.1406 105.811 45.1406ZM121.808 22.7045V47.25H118.98V22.7045H121.808ZM132.406 47.6815C131.24 47.6815 130.181 47.4617 129.23 47.0223C128.279 46.5748 127.524 45.9316 126.965 45.0927C126.406 44.2457 126.126 43.223 126.126 42.0245C126.126 40.9698 126.334 40.1149 126.749 39.4597C127.165 38.7965 127.72 38.2772 128.415 37.9016C129.11 37.5261 129.877 37.2464 130.716 37.0627C131.563 36.8709 132.414 36.7191 133.269 36.6072C134.388 36.4634 135.295 36.3556 135.99 36.2836C136.693 36.2037 137.204 36.0719 137.524 35.8881C137.852 35.7044 138.015 35.3848 138.015 34.9293V34.8335C138.015 33.6509 137.692 32.7321 137.045 32.0769C136.405 31.4217 135.435 31.0941 134.132 31.0941C132.782 31.0941 131.723 31.3897 130.956 31.981C130.189 32.5723 129.65 33.2035 129.338 33.8746L126.653 32.9158C127.133 31.7972 127.772 30.9263 128.571 30.3031C129.378 29.6719 130.257 29.2324 131.208 28.9847C132.167 28.729 133.109 28.6012 134.036 28.6012C134.628 28.6012 135.307 28.6731 136.074 28.8169C136.849 28.9528 137.596 29.2364 138.315 29.6679C139.042 30.0993 139.645 30.7505 140.125 31.6214C140.604 32.4924 140.844 33.6589 140.844 35.1211V47.25H138.015V44.7571H137.872C137.68 45.1566 137.36 45.5841 136.913 46.0395C136.465 46.4949 135.87 46.8825 135.127 47.2021C134.384 47.5217 133.477 47.6815 132.406 47.6815ZM132.838 45.1406C133.956 45.1406 134.899 44.9209 135.666 44.4814C136.441 44.042 137.025 43.4747 137.416 42.7796C137.816 42.0844 138.015 41.3533 138.015 40.5863V37.9975C137.895 38.1413 137.632 38.2732 137.224 38.393C136.825 38.5049 136.361 38.6048 135.834 38.6926C135.315 38.7725 134.807 38.8445 134.312 38.9084C133.825 38.9643 133.429 39.0123 133.125 39.0522C132.39 39.1481 131.703 39.3039 131.064 39.5196C130.433 39.7274 129.921 40.043 129.53 40.4664C129.146 40.8819 128.955 41.4492 128.955 42.1683C128.955 43.1511 129.318 43.8942 130.045 44.3975C130.78 44.8929 131.711 45.1406 132.838 45.1406ZM146.006 47.25V28.8409H148.739V31.6214H148.931C149.266 30.7106 149.874 29.9715 150.752 29.4042C151.631 28.8369 152.622 28.5533 153.725 28.5533C153.933 28.5533 154.192 28.5573 154.504 28.5653C154.815 28.5732 155.051 28.5852 155.211 28.6012V31.4776C155.115 31.4537 154.895 31.4177 154.552 31.3698C154.216 31.3138 153.861 31.2859 153.485 31.2859C152.59 31.2859 151.791 31.4736 151.088 31.8492C150.393 32.2167 149.842 32.7281 149.434 33.3833C149.035 34.0305 148.835 34.7695 148.835 35.6005V47.25H146.006ZM163.981 47.6815C162.814 47.6815 161.756 47.4617 160.805 47.0223C159.854 46.5748 159.099 45.9316 158.54 45.0927C157.98 44.2457 157.701 43.223 157.701 42.0245C157.701 40.9698 157.909 40.1149 158.324 39.4597C158.74 38.7965 159.295 38.2772 159.99 37.9016C160.685 37.5261 161.452 37.2464 162.291 37.0627C163.138 36.8709 163.989 36.7191 164.844 36.6072C165.963 36.4634 166.869 36.3556 167.565 36.2836C168.268 36.2037 168.779 36.0719 169.099 35.8881C169.426 35.7044 169.59 35.3848 169.59 34.9293V34.8335C169.59 33.6509 169.266 32.7321 168.619 32.0769C167.98 31.4217 167.009 31.0941 165.707 31.0941C164.357 31.0941 163.298 31.3897 162.531 31.981C161.764 32.5723 161.224 33.2035 160.913 33.8746L158.228 32.9158C158.708 31.7972 159.347 30.9263 160.146 30.3031C160.953 29.6719 161.832 29.2324 162.783 28.9847C163.741 28.729 164.684 28.6012 165.611 28.6012C166.202 28.6012 166.881 28.6731 167.648 28.8169C168.423 28.9528 169.171 29.2364 169.89 29.6679C170.617 30.0993 171.22 30.7505 171.699 31.6214C172.179 32.4924 172.419 33.6589 172.419 35.1211V47.25H169.59V44.7571H169.446C169.254 45.1566 168.935 45.5841 168.487 46.0395C168.04 46.4949 167.445 46.8825 166.702 47.2021C165.959 47.5217 165.052 47.6815 163.981 47.6815ZM164.412 45.1406C165.531 45.1406 166.474 44.9209 167.241 44.4814C168.016 44.042 168.599 43.4747 168.991 42.7796C169.39 42.0844 169.59 41.3533 169.59 40.5863V37.9975C169.47 38.1413 169.207 38.2732 168.799 38.393C168.4 38.5049 167.936 38.6048 167.409 38.6926C166.889 38.7725 166.382 38.8445 165.887 38.9084C165.399 38.9643 165.004 39.0123 164.7 39.0522C163.965 39.1481 163.278 39.3039 162.639 39.5196C162.007 39.7274 161.496 40.043 161.105 40.4664C160.721 40.8819 160.529 41.4492 160.529 42.1683C160.529 43.1511 160.893 43.8942 161.62 44.3975C162.355 44.8929 163.286 45.1406 164.412 45.1406ZM190.621 32.9638L188.08 33.6829C187.92 33.2594 187.685 32.8479 187.373 32.4484C187.069 32.0409 186.654 31.7053 186.126 31.4417C185.599 31.178 184.924 31.0462 184.101 31.0462C182.974 31.0462 182.036 31.3058 181.284 31.8252C180.541 32.3366 180.17 32.9877 180.17 33.7788C180.17 34.4819 180.426 35.0372 180.937 35.4447C181.448 35.8522 182.247 36.1918 183.334 36.4634L186.067 37.1346C187.712 37.5341 188.939 38.1453 189.746 38.9683C190.553 39.7833 190.956 40.834 190.956 42.1204C190.956 43.1751 190.653 44.1179 190.046 44.9489C189.446 45.7798 188.607 46.435 187.529 46.9144C186.45 47.3938 185.196 47.6335 183.765 47.6335C181.888 47.6335 180.334 47.226 179.103 46.411C177.873 45.5961 177.094 44.4055 176.766 42.8395L179.451 42.1683C179.706 43.1591 180.19 43.9022 180.901 44.3975C181.62 44.8929 182.559 45.1406 183.717 45.1406C185.036 45.1406 186.083 44.861 186.858 44.3017C187.641 43.7344 188.032 43.0552 188.032 42.2642C188.032 41.625 187.808 41.0897 187.361 40.6582C186.913 40.2188 186.226 39.8912 185.299 39.6754L182.231 38.9563C180.545 38.5568 179.307 37.9376 178.516 37.0986C177.733 36.2517 177.341 35.193 177.341 33.9226C177.341 32.8839 177.633 31.965 178.216 31.166C178.808 30.367 179.611 29.7398 180.625 29.2844C181.648 28.8289 182.807 28.6012 184.101 28.6012C185.923 28.6012 187.353 29.0007 188.392 29.7997C189.438 30.5987 190.181 31.6534 190.621 32.9638ZM200.631 47.6815C199.465 47.6815 198.406 47.4617 197.455 47.0223C196.505 46.5748 195.749 45.9316 195.19 45.0927C194.631 44.2457 194.351 43.223 194.351 42.0245C194.351 40.9698 194.559 40.1149 194.974 39.4597C195.39 38.7965 195.945 38.2772 196.64 37.9016C197.336 37.5261 198.103 37.2464 198.942 37.0627C199.788 36.8709 200.639 36.7191 201.494 36.6072C202.613 36.4634 203.52 36.3556 204.215 36.2836C204.918 36.2037 205.429 36.0719 205.749 35.8881C206.077 35.7044 206.24 35.3848 206.24 34.9293V34.8335C206.24 33.6509 205.917 32.7321 205.27 32.0769C204.63 31.4217 203.66 31.0941 202.357 31.0941C201.007 31.0941 199.948 31.3897 199.181 31.981C198.414 32.5723 197.875 33.2035 197.563 33.8746L194.879 32.9158C195.358 31.7972 195.997 30.9263 196.796 30.3031C197.603 29.6719 198.482 29.2324 199.433 28.9847C200.392 28.729 201.335 28.6012 202.261 28.6012C202.853 28.6012 203.532 28.6731 204.299 28.8169C205.074 28.9528 205.821 29.2364 206.54 29.6679C207.267 30.0993 207.87 30.7505 208.35 31.6214C208.829 32.4924 209.069 33.6589 209.069 35.1211V47.25H206.24V44.7571H206.097C205.905 45.1566 205.585 45.5841 205.138 46.0395C204.69 46.4949 204.095 46.8825 203.352 47.2021C202.609 47.5217 201.702 47.6815 200.631 47.6815ZM201.063 45.1406C202.181 45.1406 203.124 44.9209 203.891 44.4814C204.666 44.042 205.25 43.4747 205.641 42.7796C206.041 42.0844 206.24 41.3533 206.24 40.5863V37.9975C206.121 38.1413 205.857 38.2732 205.449 38.393C205.05 38.5049 204.586 38.6048 204.059 38.6926C203.54 38.7725 203.032 38.8445 202.537 38.9084C202.05 38.9643 201.654 39.0123 201.351 39.0522C200.615 39.1481 199.928 39.3039 199.289 39.5196C198.658 39.7274 198.146 40.043 197.755 40.4664C197.371 40.8819 197.18 41.4492 197.18 42.1683C197.18 43.1511 197.543 43.8942 198.27 44.3975C199.005 44.8929 199.936 45.1406 201.063 45.1406Z" fill="black"/>
<path d="M57.0102 24.2112C56.9845 24.1896 56.9567 24.1783 56.9342 24.1742C56.9161 24.1709 56.8906 24.1696 56.8513 24.1849L26.2144 36.1253C26.1031 36.1688 26.0789 36.315 26.1706 36.3918L50.393 56.7017C50.4846 56.7785 50.6249 56.7297 50.6486 56.6127L57.063 24.3625C57.0713 24.3209 57.0656 24.2962 57.0592 24.279C57.0512 24.2577 57.0358 24.2327 57.0102 24.2112Z" stroke="#B50000" stroke-width="2.625"/>
<path d="M18.0445 21.5652C18.0702 21.5436 18.098 21.5323 18.1205 21.5282C18.1386 21.5249 18.164 21.5236 18.2034 21.5389L48.8403 33.4793C48.9516 33.5228 48.9757 33.669 48.8841 33.7458L24.6617 54.0557C24.5701 54.1325 24.4298 54.0837 24.4061 53.9667L17.9917 21.7165C17.9834 21.6749 17.9891 21.6502 17.9955 21.633C18.0035 21.6117 18.0189 21.5867 18.0445 21.5652Z" stroke="#B50000" stroke-width="2.625"/>
<circle cx="38.8525" cy="11.4844" r="10.1719" stroke="#B50000" stroke-width="2.625"/>
</svg>
